# xmcd CD database file generated by Grip 3.2.0
# 
# Track frame offsets:
#       150
#       20320
#       37422
#       55157
# 
# Disc length: 1003 seconds
# 
# Revision: 5
# Processed by: cddbd v1.5.2PL0 Copyright (c) Steve Scherf et al.
# Submitted via: Grip 3.2.0
# 
DISCID=2f03e904
DTITLE=スキマスイッチ - アカツキの詩
DYEAR=2006
DGENRE=Other
TTITLE0=アカツキの詩
TTITLE1=君曜日
TTITLE2=夕間暮れ <instrumental>
TTITLE3=アカツキの詩 <backing track>
EXTD=YEAR: 2006
EXTT0=
EXTT1=
EXTT2=
EXTT3=
PLAYORDER=
